<svg width="140" height="34" viewBox="0 0 140 34" fill="none" xmlns="http://www.w3.org/2000/svg">
<g clip-path="url(#clip0_170_32)">
<path d="M40.9994 24.0093H50.9436V21.0239H44.5338V9.77905H40.9994V24.0093Z" fill="white"/>
<path d="M56.8352 22.0191C55.4175 22.0191 54.6787 20.7851 54.6787 18.9342C54.6787 17.0833 55.4175 15.8294 56.8352 15.8294C58.253 15.8294 59.0118 17.0833 59.0118 18.9342C59.0118 20.7851 58.253 22.0191 56.8352 22.0191ZM56.8552 24.3277C60.15 24.3277 62.3065 21.9992 62.3065 18.9342C62.3065 15.8692 60.15 13.5406 56.8552 13.5406C53.5804 13.5406 51.3839 15.8692 51.3839 18.9342C51.3839 21.9992 53.5804 24.3277 56.8552 24.3277Z" fill="white"/>
<path d="M68.0094 27.532C69.527 27.532 70.8649 27.1937 71.7635 26.3976C72.5822 25.6612 73.1213 24.5467 73.1213 23.0142V13.8193H70.0063V14.9139H69.9663C69.3673 14.0581 68.4487 13.5207 67.0909 13.5207C64.5549 13.5207 62.7977 15.6304 62.7977 18.6157C62.7977 21.7404 64.9343 23.452 67.2307 23.452C68.4687 23.452 69.2475 22.9545 69.8465 22.2778H69.9264V23.2928C69.9264 24.5268 69.3473 25.2433 67.9695 25.2433C66.8912 25.2433 66.3521 24.7855 66.1724 24.2481H63.0174C63.3369 26.3777 65.1939 27.532 68.0094 27.532ZM67.9895 21.0438C66.7714 21.0438 65.9727 20.0487 65.9727 18.5162C65.9727 16.9638 66.7714 15.9687 67.9895 15.9687C69.3473 15.9687 70.0662 17.1231 70.0662 18.4963C70.0662 19.9293 69.4072 21.0438 67.9895 21.0438Z" fill="white"/>
<path d="M79.5265 22.0191C78.1087 22.0191 77.3699 20.7851 77.3699 18.9342C77.3699 17.0833 78.1087 15.8294 79.5265 15.8294C80.9442 15.8294 81.703 17.0833 81.703 18.9342C81.703 20.7851 80.9442 22.0191 79.5265 22.0191ZM79.5464 24.3277C82.8412 24.3277 84.9973 21.9992 84.9973 18.9342C84.9973 15.8692 82.8412 13.5406 79.5464 13.5406C76.2716 13.5406 74.0751 15.8692 74.0751 18.9342C74.0751 21.9992 76.2716 24.3277 79.5464 24.3277Z" fill="white"/>
<path d="M85.9484 24.0093H89.2032V13.8192H85.9484V24.0093ZM85.9484 12.4062H89.2032V9.77905H85.9484V12.4062Z" fill="white"/>
<path d="M90.6151 27.3728H93.8699V22.9545H93.9099C94.5489 23.8103 95.4874 24.3277 96.8053 24.3277C99.481 24.3277 101.258 22.2181 101.258 18.9143C101.258 15.8493 99.6008 13.5207 96.8851 13.5207C95.4874 13.5207 94.4889 14.1377 93.7901 15.0532H93.7302V13.8193H90.6151V27.3728ZM95.9666 21.82C94.5688 21.82 93.7701 20.6856 93.7701 19.0337C93.7701 17.3818 94.489 16.1279 95.9067 16.1279C97.3045 16.1279 97.9634 17.2823 97.9634 19.0337C97.9634 20.7652 97.2046 21.82 95.9666 21.82Z" fill="white"/>
<path d="M106.557 24.3277C109.233 24.3277 111.21 23.1734 111.21 20.9443C111.21 18.3371 109.093 17.8794 107.296 17.5808C105.998 17.342 104.84 17.2425 104.84 16.526C104.84 15.8891 105.459 15.5906 106.258 15.5906C107.156 15.5906 107.775 15.8692 107.895 16.7847H110.89C110.731 14.7746 109.173 13.5207 106.278 13.5207C103.862 13.5207 101.865 14.6353 101.865 16.7847C101.865 19.173 103.762 19.6507 105.539 19.9492C106.897 20.188 108.135 20.2876 108.135 21.2031C108.135 21.8598 107.516 22.2181 106.537 22.2181C105.459 22.2181 104.78 21.7205 104.66 20.7055H101.585C101.685 22.9545 103.562 24.3277 106.557 24.3277Z" fill="white"/>
<path d="M115.631 24.3078C117.049 24.3078 117.947 23.7506 118.686 22.7554H118.746V24.0093H121.861V13.8192H118.606V19.5113C118.606 20.7254 117.927 21.5613 116.809 21.5613C115.771 21.5613 115.272 20.9443 115.272 19.8298V13.8192H112.037V20.5065C112.037 22.7753 113.275 24.3078 115.631 24.3078Z" fill="white"/>
<path d="M123.277 24.0093H126.532V18.2973C126.532 17.0833 127.131 16.2275 128.15 16.2275C129.128 16.2275 129.587 16.8643 129.587 17.959V24.0093H132.842V18.2973C132.842 17.0833 133.421 16.2275 134.46 16.2275C135.438 16.2275 135.897 16.8643 135.897 17.959V24.0093H139.152V17.3818C139.152 15.093 137.994 13.5207 135.678 13.5207C134.36 13.5207 133.261 14.078 132.463 15.3119H132.423C131.904 14.2173 130.885 13.5207 129.547 13.5207C128.07 13.5207 127.091 14.2173 126.452 15.2721H126.392V13.8193H123.277V24.0093Z" fill="white"/>
<path d="M21.1413 1.63937L17.869 0.765442L15.1114 11.0231L12.6217 1.76242L9.34936 2.63635L12.0392 12.6419L5.33937 5.96411L2.94385 8.35173L10.2928 15.6765L1.14086 13.2323L0.264038 16.4938L10.2637 19.1644C10.1492 18.6722 10.0886 18.1594 10.0886 17.6325C10.0886 13.9028 13.1221 10.8793 16.8642 10.8793C20.6062 10.8793 23.6397 13.9028 23.6397 17.6325C23.6397 18.156 23.5799 18.6657 23.4668 19.1549L32.5546 21.582L33.4314 18.3204L23.392 15.6393L32.5446 13.1949L31.6677 9.93339L21.6288 12.6144L28.3286 5.93669L25.9331 3.54907L18.6861 10.7722L21.1413 1.63937Z" fill="#F97316"/>
<path d="M23.458 19.1929C23.1774 20.3751 22.5851 21.4372 21.7724 22.2881L28.3561 28.8501L30.7516 26.4625L23.458 19.1929Z" fill="#F97316"/>
<path d="M21.7058 22.3568C20.8833 23.1941 19.8439 23.8189 18.6782 24.1409L21.0739 33.0522L24.3462 32.1783L21.7058 22.3568Z" fill="#F97316"/>
<path d="M18.556 24.1735C18.0152 24.3121 17.4483 24.3857 16.8642 24.3857C16.2383 24.3857 15.6323 24.3011 15.057 24.1428L12.6591 33.0623L15.9314 33.9361L18.556 24.1735Z" fill="#F97316"/>
<path d="M14.9413 24.1099C13.7935 23.7719 12.7725 23.1391 11.9668 22.2993L5.36688 28.8775L7.7624 31.2651L14.9413 24.1099Z" fill="#F97316"/>
<path d="M11.9117 22.2412C11.1198 21.3962 10.543 20.3483 10.2684 19.1844L1.15094 21.6194L2.02775 24.8809L11.9117 22.2412Z" fill="#F97316"/>
</g>
<defs>
<clipPath id="clip0_170_32">
<rect width="139.778" height="34" fill="white"/>
</clipPath>
</defs>
</svg>
